<svg xmlns="http://www.w3.org/2000/svg" xmlns:xlink="http://www.w3.org/1999/xlink" version="1.1" id="Layer_1" x="0px" y="0px" width="161px" height="187px" viewBox="0 0 161 187" enable-background="new 0 0 161 187" xml:space="preserve">
<rect x="11" y="9.5" fill="#FFFFFF" width="141" height="167"/>
<g>
	<g>
		<defs>
			<rect id="SVGID_1_" x="15.895" y="14.537" width="131.375" height="157.704"/>
		</defs>
		<clipPath id="SVGID_2_">
			<use xlink:href="#SVGID_1_" overflow="visible"/>
		</clipPath>
		<path clip-path="url(#SVGID_2_)" fill="#007155" d="M147.271,14.537H15.895v157.704h27.75v-0.054v-4.147l-1.724-1.875v-5.644    l-1.788-1.709v-5.797l-1.283-0.969l-0.721-0.496v-1.078h12.677l7.991-9.613l3.576-24.946l-2.502-3.151l2.665-3.539    c0,0-0.402-18.48-0.042-18.154c0.357,0.336-3.82-2.317-3.82-2.317v-1.488l7.042-7.133l12.41-44.582l-1.672-1.379l3.572-7.83    l0.021,0.004c-1.005-0.259-1.737-1.114-1.737-2.121c0-1.217,1.063-2.206,2.378-2.206c1.313,0,2.379,0.988,2.379,2.206    c0,1.057-0.813,1.949-1.891,2.156l-0.066-0.014c0,0,4.143,7.778,4.143,7.917c0,0.138-1.617,1.242-1.617,1.242l12.168,44.643    l6.006,7.051c0.034,0.028,0.017,1.375,0.017,1.375l-2.603,2.429l-0.009,19.098l2.327,2.7l-2.748,2.764l3.993,24.285l8.936,10.553    l12.158-0.115l-0.005,0.99l-1.967,1.559l-0.06,5.572l-1.665,2.096v4.203l-1.972,3.485l-0.056,4.03h29.116V14.537z"/>
	</g>
	<g>
		<defs>
			<rect id="SVGID_3_" x="15.895" y="14.537" width="131.375" height="157.704"/>
		</defs>
		<clipPath id="SVGID_4_">
			<use xlink:href="#SVGID_3_" overflow="visible"/>
		</clipPath>
		<path clip-path="url(#SVGID_4_)" fill="#007155" d="M116.076,167.443l2.259-3.914v-4.469l1.49-1.978v-5.181l-77.86,0.057    l0.002,1.541l38.752-0.055l-0.004,2.865c0,0,18.091-0.873,25,15.429h-0.005c0.009,0.021,0.018,0.034,0.022,0.052h10.344v-0.052    V167.443L116.076,167.443z"/>
	</g>
	<g>
		<defs>
			<rect id="SVGID_5_" x="15.895" y="14.537" width="131.375" height="157.704"/>
		</defs>
		<clipPath id="SVGID_6_">
			<use xlink:href="#SVGID_5_" overflow="visible"/>
		</clipPath>
		<path clip-path="url(#SVGID_6_)" fill="#007155" d="M95.1,165.127v-2.836c-0.447-0.289-0.894-0.562-1.341-0.812v3.648h-3.251    v-5.193c-1.651-0.639-3.033-0.965-3.846-0.998c0.009-0.016,0,5.479,0,5.479h-4.988c0,0,0.035-6.245,0-6.235    c-0.271-0.111-0.855-0.111-1.371-0.01l0.032,6.245h-4.938v-5.526l-0.015,0.008c-1.424,0.307-2.729,0.723-3.944,1.199v5.031h-3.256    v-3.458c-0.466,0.269-0.911,0.546-1.339,0.833v2.625h-3.286c-1.732,1.66-2.969,3.355-3.773,4.631    c-0.74,1.189-1.074,1.982-1.074,1.982h-0.026c-0.015,0.027-0.015,0.031-0.025,0.052h4.894v-5.06h3.29v5.06h1.339v-5.06h3.255v5.06    h3.959v-5.985l4.907-0.026l0.03,6.013h1.341v-5.984h4.988v5.984h3.846v-5.061h3.251v5.061H95.1v-5.061h3.293v5.061h5.08    c-1.355-4.718-5.08-6.665-5.08-6.665L95.1,165.127L95.1,165.127z"/>
	</g>
	<g>
		<defs>
			<rect id="SVGID_7_" x="15.895" y="14.537" width="131.375" height="157.704"/>
		</defs>
		<clipPath id="SVGID_8_">
			<use xlink:href="#SVGID_7_" overflow="visible"/>
		</clipPath>
		<path clip-path="url(#SVGID_8_)" fill="#007155" d="M57.945,168.721c0.535-0.854,1.086-1.649,1.655-2.381    c0.043-0.055,0.086-0.107,0.13-0.162c0.584-0.74,1.185-1.424,1.806-2.051c0.01-0.012,0.021-0.023,0.034-0.035    c0.648-0.656,1.311-1.256,1.983-1.807h0.002c7.347-6.018,15.774-5.975,15.774-5.975v-1.265c-1.149,0.048-2.244,0.158-3.294,0.312    c-0.319,0.05-0.599,0.125-0.902,0.181c-0.719,0.134-1.444,0.263-2.113,0.433c-0.323,0.084-0.614,0.194-0.929,0.289    c-0.616,0.182-1.24,0.358-1.822,0.573c-0.302,0.114-0.575,0.25-0.869,0.373c-0.545,0.229-1.097,0.449-1.608,0.702    c-0.298,0.146-0.562,0.311-0.85,0.464c-0.464,0.255-0.937,0.5-1.373,0.771c-0.302,0.188-0.575,0.394-0.862,0.584    c-0.372,0.258-0.757,0.508-1.108,0.771c-0.322,0.243-0.611,0.498-0.911,0.742c-0.278,0.228-0.565,0.454-0.821,0.687    c-0.359,0.321-0.691,0.649-1.018,0.979c-0.159,0.153-0.33,0.312-0.484,0.471c-0.423,0.438-0.814,0.878-1.181,1.315    c-0.028,0.037-0.064,0.07-0.094,0.107c-2.841,3.41-4.068,6.51-4.227,6.99h1.42c0.496-1.062,1.03-2.051,1.586-2.958    C57.898,168.793,57.922,168.76,57.945,168.721"/>
	</g>
	<g>
		<defs>
			<rect id="SVGID_9_" x="15.895" y="14.537" width="131.375" height="157.704"/>
		</defs>
		<clipPath id="SVGID_10_">
			<use xlink:href="#SVGID_9_" overflow="visible"/>
		</clipPath>
		<polygon clip-path="url(#SVGID_10_)" fill="#007155" points="87.881,79.132 81.892,38.023 84.85,79.132   "/>
	</g>
	<g>
		<defs>
			<rect id="SVGID_11_" x="15.895" y="14.537" width="131.375" height="157.704"/>
		</defs>
		<clipPath id="SVGID_12_">
			<use xlink:href="#SVGID_11_" overflow="visible"/>
		</clipPath>
		<polygon clip-path="url(#SVGID_12_)" fill="#007155" points="80.671,34.144 83.184,34.144 83.184,33.134 80.78,28.386   "/>
	</g>
	<g>
		<defs>
			<rect id="SVGID_13_" x="15.895" y="14.537" width="131.375" height="157.704"/>
		</defs>
		<clipPath id="SVGID_14_">
			<use xlink:href="#SVGID_13_" overflow="visible"/>
		</clipPath>
		<polygon clip-path="url(#SVGID_14_)" fill="#007155" points="92.458,79.132 83.524,42.578 89.34,79.132   "/>
	</g>
	<g>
		<defs>
			<rect id="SVGID_15_" x="15.895" y="14.537" width="131.375" height="157.704"/>
		</defs>
		<clipPath id="SVGID_16_">
			<use xlink:href="#SVGID_15_" overflow="visible"/>
		</clipPath>
		<path clip-path="url(#SVGID_16_)" fill="#007155" d="M78.904,108.902c0,0-0.053-12.615-0.053-13.182    c0-0.564-0.026-2.315-2.725-2.222c-2.699,0.094-2.524,2.336-2.524,2.336V108.9h5.302V108.902z"/>
	</g>
	<g>
		<defs>
			<rect id="SVGID_17_" x="15.895" y="14.537" width="131.375" height="157.704"/>
		</defs>
		<clipPath id="SVGID_18_">
			<use xlink:href="#SVGID_17_" overflow="visible"/>
		</clipPath>
		<path clip-path="url(#SVGID_18_)" fill="#007155" d="M80.784,25.32c1.177,0,1.333-1.363,1.333-1.363    c-0.098-1.097-1.495-1.042-1.495-1.042c0.135,0.267,0.122,1.003,0.122,1.003C80.744,24.601,80.784,25.32,80.784,25.32"/>
	</g>
	<g>
		<defs>
			<rect id="SVGID_19_" x="15.895" y="14.537" width="131.375" height="157.704"/>
		</defs>
		<clipPath id="SVGID_20_">
			<use xlink:href="#SVGID_19_" overflow="visible"/>
		</clipPath>
		<polygon clip-path="url(#SVGID_20_)" fill="#007155" points="96.22,84.736 93.814,82.115 67.168,82.115 64.705,84.56     64.705,86.366 96.22,86.357   "/>
	</g>
	<g>
		<defs>
			<rect id="SVGID_21_" x="15.895" y="14.537" width="131.375" height="157.704"/>
		</defs>
		<clipPath id="SVGID_22_">
			<use xlink:href="#SVGID_21_" overflow="visible"/>
		</clipPath>
		<polygon clip-path="url(#SVGID_22_)" fill="#007155" points="90.924,125.477 90.924,126.081 100.102,137.145 98.317,125.475   "/>
	</g>
	<g>
		<defs>
			<rect id="SVGID_23_" x="15.895" y="14.537" width="131.375" height="157.704"/>
		</defs>
		<clipPath id="SVGID_24_">
			<use xlink:href="#SVGID_23_" overflow="visible"/>
		</clipPath>
		<polygon clip-path="url(#SVGID_24_)" fill="#007155" points="96.242,113.477 81.058,113.477 88.595,122.658 97.795,122.671   "/>
	</g>
	<g>
		<defs>
			<rect id="SVGID_25_" x="15.895" y="14.537" width="131.375" height="157.704"/>
		</defs>
		<clipPath id="SVGID_26_">
			<use xlink:href="#SVGID_25_" overflow="visible"/>
		</clipPath>
		<path clip-path="url(#SVGID_26_)" fill="#007155" d="M97.132,93.064v-4.429l-16.395-0.111l0.018,4.474h1.001    c4.286-3.205,7.435,0.377,7.435,0.377c3.871-3.325,7.182-0.152,7.026-0.311H97.132z"/>
	</g>
	<g>
		<defs>
			<rect id="SVGID_27_" x="15.895" y="14.537" width="131.375" height="157.704"/>
		</defs>
		<clipPath id="SVGID_28_">
			<use xlink:href="#SVGID_27_" overflow="visible"/>
		</clipPath>
		<path clip-path="url(#SVGID_28_)" fill="#007155" d="M95.795,108.949c0,0-0.051-12.619-0.051-13.18    c0-0.568-0.028-2.319-2.729-2.227c-2.693,0.098-2.515,2.336-2.515,2.336v13.069L95.795,108.949L95.795,108.949z"/>
	</g>
	<g>
		<defs>
			<rect id="SVGID_29_" x="15.895" y="14.537" width="131.375" height="157.704"/>
		</defs>
		<clipPath id="SVGID_30_">
			<use xlink:href="#SVGID_29_" overflow="visible"/>
		</clipPath>
		<path clip-path="url(#SVGID_30_)" fill="#007155" d="M88.238,108.92c0,0-0.045-12.617-0.045-13.18c0-0.569-0.021-2.32-2.725-2.225    c-2.702,0.093-2.522,2.333-2.522,2.333v13.071L88.238,108.92L88.238,108.92z"/>
	</g>
	<g>
		<defs>
			<rect id="SVGID_31_" x="15.895" y="14.537" width="131.375" height="157.704"/>
		</defs>
		<clipPath id="SVGID_32_">
			<use xlink:href="#SVGID_31_" overflow="visible"/>
		</clipPath>
		<polygon clip-path="url(#SVGID_32_)" fill="#007155" points="80.747,79.132 83.443,79.132 80.762,35.578   "/>
	</g>
	<g>
		<defs>
			<rect id="SVGID_33_" x="15.895" y="14.537" width="131.375" height="157.704"/>
		</defs>
		<clipPath id="SVGID_34_">
			<use xlink:href="#SVGID_33_" overflow="visible"/>
		</clipPath>
		<path clip-path="url(#SVGID_34_)" fill="#007155" d="M87.249,137.943v7.262h5.899v-7.262c0,0,0.354-2.527-2.922-2.527    C90.225,135.416,87.249,135.254,87.249,137.943"/>
	</g>
	<g>
		<defs>
			<rect id="SVGID_35_" x="15.895" y="14.537" width="131.375" height="157.704"/>
		</defs>
		<clipPath id="SVGID_36_">
			<use xlink:href="#SVGID_35_" overflow="visible"/>
		</clipPath>
		<polygon clip-path="url(#SVGID_36_)" fill="#007155" points="94.877,146.84 80.942,146.84 80.942,149.924 104.231,149.953     94.877,138.575   "/>
	</g>
	<g>
		<defs>
			<rect id="SVGID_37_" x="15.895" y="14.537" width="131.375" height="157.704"/>
		</defs>
		<clipPath id="SVGID_38_">
			<use xlink:href="#SVGID_37_" overflow="visible"/>
		</clipPath>
		<polygon clip-path="url(#SVGID_38_)" fill="#007155" points="81.062,118.928 106.312,149.92 108.333,149.92 81.062,116.611     53.765,149.98 55.729,149.98   "/>
	</g>
	<g>
		<defs>
			<rect id="SVGID_39_" x="15.895" y="14.537" width="131.375" height="157.704"/>
		</defs>
		<clipPath id="SVGID_40_">
			<use xlink:href="#SVGID_39_" overflow="visible"/>
		</clipPath>
		<path clip-path="url(#SVGID_40_)" fill="#007155" d="M81.007,128.17c4.791,0,5.416,3.635,5.416,3.635v3.412    c2.066-1.906,3.606-1.318,4.407-1.318l-9.823-12.439V128.17z"/>
	</g>
	<g>
		<defs>
			<rect id="SVGID_41_" x="15.895" y="14.537" width="131.375" height="157.704"/>
		</defs>
		<clipPath id="SVGID_42_">
			<use xlink:href="#SVGID_41_" overflow="visible"/>
		</clipPath>
		<path clip-path="url(#SVGID_42_)" fill="#007155" d="M71.104,108.93c0,0-0.047-12.613-0.047-13.182    c0-0.564-0.028-2.314-2.729-2.218c-2.699,0.094-2.523,2.327-2.523,2.327v13.072H71.104L71.104,108.93z"/>
	</g>
	<g>
		<defs>
			<rect id="SVGID_43_" x="15.895" y="14.537" width="131.375" height="157.704"/>
		</defs>
		<clipPath id="SVGID_44_">
			<use xlink:href="#SVGID_43_" overflow="visible"/>
		</clipPath>
		<path clip-path="url(#SVGID_44_)" fill="#007155" d="M84.583,133.201c0,0,0.445-3.16-3.653-3.16c0,0-3.724-0.197-3.724,3.158    l0.002,11.969h7.375V133.201z"/>
	</g>
	<g>
		<defs>
			<rect id="SVGID_45_" x="15.895" y="14.537" width="131.375" height="157.704"/>
		</defs>
		<clipPath id="SVGID_46_">
			<use xlink:href="#SVGID_45_" overflow="visible"/>
		</clipPath>
		<polygon clip-path="url(#SVGID_46_)" fill="#007155" points="73.011,122.941 75.34,120.079 75.34,119.368 63.715,119.368     63.658,122.941   "/>
	</g>
	<g>
		<defs>
			<rect id="SVGID_47_" x="15.895" y="14.537" width="131.375" height="157.704"/>
		</defs>
		<clipPath id="SVGID_48_">
			<use xlink:href="#SVGID_47_" overflow="visible"/>
		</clipPath>
		<polygon clip-path="url(#SVGID_48_)" fill="#007155" points="97.136,110.121 64.015,110.121 62.882,111.77 98.571,111.77   "/>
	</g>
	<g>
		<defs>
			<rect id="SVGID_49_" x="15.895" y="14.537" width="131.375" height="157.704"/>
		</defs>
		<clipPath id="SVGID_50_">
			<use xlink:href="#SVGID_49_" overflow="visible"/>
		</clipPath>
		<polygon clip-path="url(#SVGID_50_)" fill="#007155" points="70.688,125.477 63.301,125.475 61.515,137.145 70.688,126.081   "/>
	</g>
	<g>
		<defs>
			<rect id="SVGID_51_" x="15.895" y="14.537" width="131.375" height="157.704"/>
		</defs>
		<clipPath id="SVGID_52_">
			<use xlink:href="#SVGID_51_" overflow="visible"/>
		</clipPath>
		<path clip-path="url(#SVGID_52_)" fill="#007155" d="M72.062,135.439c0,0-2.983-0.154-2.983,2.529l0.001,7.268h5.903v-7.266    C74.983,137.973,75.339,135.439,72.062,135.439"/>
	</g>
	<g>
		<defs>
			<rect id="SVGID_53_" x="15.895" y="14.537" width="131.375" height="157.704"/>
		</defs>
		<clipPath id="SVGID_54_">
			<use xlink:href="#SVGID_53_" overflow="visible"/>
		</clipPath>
		<path clip-path="url(#SVGID_54_)" fill="#007155" d="M15.899,14.537v157.704h131.371v-0.449V14.537H15.899z M146.374,171.342    H16.793V15.429h129.581L146.374,171.342L146.374,171.342z"/>
	</g>
</g>
</svg>
